<?xml version="1.0" encoding="UTF-8" standalone="no"?>
<!DOCTYPE svg PUBLIC "-//W3C//DTD SVG 1.1//EN" "http://www.w3.org/Graphics/SVG/1.1/DTD/svg11.dtd">
<svg xmlns="http://www.w3.org/2000/svg" version="1.1" viewBox="0.00 0.00 32.00 32.00">
<g stroke-width="2.00" fill="none" stroke-linecap="butt">
<path stroke="#c44ca9" vector-effect="non-scaling-stroke" d="
  M 3.90 15.80
  L 1.52 13.13"
/>
<path stroke="#7e67ef" vector-effect="non-scaling-stroke" d="
  M 21.04 13.32
  Q 19.52 13.07 17.21 12.10
  Q 16.81 11.93 16.88 13.05"
/>
</g>
<path fill="#af2fe4" d="
  M 3.90 15.80
  L 1.52 13.13
  Q 1.80 12.75 2.45 12.32
  A 0.73 0.70 -25.5 0 0 2.75 11.52
  Q 1.52 7.38 5.12 5.45
  Q 5.54 5.22 5.71 4.77
  C 7.50 -0.17 13.29 0.83 15.18 5.26
  A 0.75 0.74 78.4 0 1 14.50 6.30
  L 10.77 6.31
  Q 10.29 6.32 9.95 6.64
  Q 8.71 7.78 7.10 8.25
  A 0.72 0.71 70.0 0 0 6.65 9.22
  Q 6.94 9.87 7.54 10.21
  A 0.72 0.71 -61.9 0 0 8.53 9.90
  Q 10.39 6.19 14.68 7.57
  Q 15.15 7.72 15.15 8.21
  L 15.19 14.78
  A 0.69 0.69 0.0 0 1 14.51 15.48
  C 12.88 15.50 7.18 16.04 5.31 14.91
  Q 4.89 14.65 4.52 14.98
  Q 4.16 15.30 3.90 15.80
  Z"
/>
<path fill="#5892f9" d="
  M 21.04 13.32
  Q 19.52 13.07 17.21 12.10
  Q 16.81 11.93 16.88 13.05
  C 16.87 10.00 15.78 3.95 19.27 2.23
  Q 23.98 -0.08 26.46 4.88
  Q 26.68 5.32 27.10 5.58
  C 29.88 7.30 30.57 10.95 27.94 13.18
  Q 25.72 15.06 21.04 13.32
  Z
  M 21.10 7.78
  A 0.79 0.79 0.0 0 1 20.66 8.93
  Q 19.45 9.33 19.00 10.45
  A 0.35 0.35 0.0 0 0 19.54 10.85
  C 21.92 8.91 22.05 10.41 24.20 10.79
  Q 24.68 10.88 24.75 10.83
  A 0.64 0.64 0.0 0 0 24.46 9.68
  Q 22.73 9.44 21.86 6.67
  Q 21.45 5.34 20.93 6.64
  Q 20.73 7.13 21.10 7.78
  Z"
/>
<path fill="#a33ce5" d="
  M 21.04 13.32
  Q 22.11 15.08 24.80 15.38
  A 0.63 0.62 3.5 0 1 25.36 16.01
  Q 25.34 17.04 25.67 18.01
  Q 25.74 18.21 25.94 18.16
  L 26.26 18.07
  Q 26.45 18.03 26.44 17.84
  L 26.39 15.93
  A 0.96 0.94 78.0 0 1 26.97 15.02
  Q 28.52 14.37 29.56 13.07
  Q 29.94 12.60 30.41 12.97
  Q 31.60 13.91 32.00 15.62
  L 32.00 17.72
  Q 31.36 19.44 29.85 20.58
  A 0.94 0.93 68.3 0 0 29.49 21.43
  Q 29.90 24.85 27.02 26.54
  A 1.38 1.36 -5.0 0 0 26.45 27.21
  C 24.93 31.03 19.60 31.72 17.59 28.22
  C 16.01 25.45 16.84 16.48 16.88 13.05
  Q 16.81 11.93 17.21 12.10
  Q 19.52 13.07 21.04 13.32
  Z
  M 21.21 24.05
  L 20.96 25.31
  Q 20.92 25.50 21.10 25.54
  L 21.45 25.62
  A 0.42 0.42 0.0 0 0 21.95 25.31
  Q 22.71 22.42 25.75 22.44
  Q 25.92 22.44 25.96 22.27
  Q 25.99 22.14 26.03 22.00
  Q 26.10 21.78 25.86 21.72
  Q 23.92 21.25 22.21 22.39
  A 0.54 0.53 -46.8 0 1 21.64 22.41
  L 19.66 21.25
  Q 19.38 21.09 19.28 21.39
  L 19.15 21.76
  Q 19.10 21.90 19.20 22.01
  Q 19.92 22.77 20.85 23.27
  A 0.72 0.71 -70.3 0 1 21.21 24.05
  Z"
/>
<path fill="#d8686e" d="
  M 1.52 13.13
  L 3.90 15.80
  Q 4.02 16.55 4.54 17.00
  Q 4.93 17.33 5.36 17.06
  C 7.04 16.00 12.35 16.49 14.14 16.47
  Q 15.14 16.46 15.14 17.46
  L 15.15 23.73
  Q 15.15 24.69 14.19 24.66
  C 12.05 24.58 9.57 25.11 8.79 22.32
  A 0.88 0.87 66.2 0 0 7.49 21.81
  Q 6.88 22.19 6.68 22.84
  A 0.81 0.81 0.0 0 0 7.28 23.88
  Q 8.73 24.19 9.78 25.28
  A 1.38 1.38 0.0 0 0 10.79 25.72
  L 14.53 25.74
  A 0.64 0.63 -79.8 0 1 15.12 26.59
  C 13.43 31.38 7.68 32.04 5.47 27.20
  Q 5.26 26.72 4.82 26.44
  Q 2.06 24.68 2.51 21.37
  Q 2.57 20.89 2.17 20.61
  Q 0.57 19.50 0.00 17.59
  L 0.00 15.30
  Q 0.54 13.77 1.52 13.13
  Z"
/>
</svg>
