<svg xmlns="http://www.w3.org/2000/svg" width="64" height="64" fill="none"><mask id="a" width="64" height="64" x="0" y="0" maskUnits="userSpaceOnUse" style="mask-type:luminance"><path fill="#fff" fill-rule="evenodd" d="M64 19.932c0-.76 0-1.52-.004-2.28a94.35 94.35 0 0 0-.029-1.919c-.038-1.394-.12-2.8-.368-4.18-.251-1.398-.662-2.7-1.31-3.971a13.357 13.357 0 0 0-5.843-5.84c-1.272-.648-2.575-1.059-3.975-1.31-1.38-.248-2.786-.33-4.18-.368A92.09 92.09 0 0 0 46.37.036C45.61.03 44.85.032 44.089.032L35.262 0H28.66l-8.67.032c-.762 0-1.524 0-2.286.004-.642.004-1.283.011-1.925.028-1.397.038-2.807.12-4.19.368-1.402.252-2.707.662-3.98 1.309a13.39 13.39 0 0 0-5.856 5.84C1.104 8.853.693 10.155.441 11.555c-.249 1.378-.33 2.784-.369 4.178-.017.64-.024 1.28-.028 1.92-.005.76-.044 1.704-.044 2.463V35.34l.04 8.732c0 .76 0 1.522.004 2.283.004.64.011 1.281.028 1.922.038 1.396.12 2.804.369 4.185.252 1.4.663 2.705 1.312 3.977a13.38 13.38 0 0 0 5.855 5.849c1.275.648 2.58 1.06 3.983 1.31 1.382.249 2.791.331 4.189.369.641.017 1.283.025 1.924.028.762.005 1.523.005 2.285.005h24.1c.76 0 1.52 0 2.28-.005a91.13 91.13 0 0 0 1.921-.028c1.395-.038 2.803-.12 4.182-.368 1.4-.252 2.702-.663 3.974-1.31a13.36 13.36 0 0 0 5.844-5.85c.647-1.273 1.058-2.577 1.31-3.978.247-1.38.33-2.788.367-4.184.017-.64.025-1.282.029-1.922.004-.761.004-1.522.004-2.283v-24.14" clip-rule="evenodd"/></mask><g mask="url(#a)"><path fill="#989898" d="M.026-.019h64v64h-64z"/><path fill="url(#b)" d="M0 0h64v64H0z" transform="translate(.026 -.019)"/><path fill="url(#c)" d="M0 0h64v64H0z" transform="translate(.026 -.019)"/><g filter="url(#d)" style="mix-blend-mode:screen"><path fill="#000" fill-rule="evenodd" d="M64.026 19.932c0-.76 0-1.52-.004-2.28-.004-.64-.011-1.28-.029-1.919-.037-1.394-.12-2.8-.367-4.18-.252-1.398-.663-2.7-1.31-3.971a13.354 13.354 0 0 0-5.843-5.84C55.2 1.093 53.897.682 52.497.431c-1.38-.248-2.786-.33-4.18-.368-.64-.017-1.28-.024-1.921-.028-.76-.005-1.52-.004-2.28-.004L35.287 0h-6.602l-8.67.032c-.762 0-1.524 0-2.285.004-.642.004-1.284.011-1.925.028-1.398.038-2.808.12-4.19.368-1.402.252-2.707.662-3.981 1.309A13.391 13.391 0 0 0 1.78 7.58C1.13 8.853.72 10.155.467 11.555c-.248 1.378-.33 2.784-.368 4.178-.018.64-.025 1.28-.029 1.92-.005.76-.044 1.704-.044 2.463V35.34l.04 8.732c0 .76 0 1.522.004 2.283.004.64.011 1.281.029 1.922.038 1.396.12 2.804.368 4.185.252 1.4.664 2.705 1.312 3.977a13.38 13.38 0 0 0 5.855 5.849c1.275.648 2.58 1.06 3.984 1.31 1.381.249 2.79.331 4.188.369.641.017 1.283.025 1.925.028.761.005 1.523.005 2.285.005h24.099c.76 0 1.52 0 2.281-.005a91.12 91.12 0 0 0 1.92-.028c1.396-.038 2.803-.12 4.183-.368 1.399-.252 2.702-.663 3.973-1.31a13.36 13.36 0 0 0 5.844-5.85c.648-1.273 1.058-2.577 1.31-3.978.248-1.38.33-2.788.368-4.184.017-.64.024-1.282.028-1.922.005-.761.004-1.522.004-2.283v-24.14Z" clip-rule="evenodd"/></g><g filter="url(#e)" opacity=".22"><path fill="#000" d="M37.44 42.696c-.325 1.736-.413 3.414-.943 4.945-1.649 4.798-6.42 7.477-11.572 6.682-4.682-.736-8.422-5.034-8.51-9.92-.088-6.3-.118-12.599 0-18.898.147-7.977 6.743-15.012 14.723-15.925 9.098-1.03 16.99 4.74 18.786 13.688 1.65 8.3-3.651 16.926-11.778 19.222-.324.088-.618.206-.707.206Zm-.236-3.915c.265-.06.412-.089.53-.148 5.8-2.03 9.363-7.977 8.51-14.188-.913-6.682-6.773-11.48-13.663-11.215-6.478.265-12.161 5.71-12.338 12.246-.177 6.328-.118 12.657-.03 18.986.06 3.709 3.534 6.593 7.244 6.181 3.71-.382 6.42-3.826 5.83-7.447-.088-.03-.147-.088-.235-.088-.147-.03-.295-.06-.412-.088-4.152-.825-6.89-3.268-8.069-7.33-.706-2.473-.588-5.063-.206-7.565.442-2.944 3.151-5.122 6.184-5.18a6.528 6.528 0 0 1 6.655 6.446c.03 3.09 0 6.181 0 9.39Zm-3.828.47c0-3.414.059-6.8-.03-10.214-.03-1.383-1.413-2.384-2.797-2.296a2.686 2.686 0 0 0-2.532 2.59c-.03 1.384-.06 2.768 0 4.151.147 2.944 2.62 5.623 5.359 5.77Z"/></g><path fill="url(#f)" d="M37.44 42.696c-.325 1.736-.413 3.414-.943 4.945-1.649 4.798-6.42 7.477-11.572 6.682-4.682-.736-8.422-5.034-8.51-9.92-.088-6.3-.118-12.599 0-18.898.147-7.977 6.743-15.012 14.723-15.925 9.098-1.03 16.99 4.74 18.786 13.688 1.65 8.3-3.651 16.926-11.778 19.222-.324.088-.618.206-.707.206Zm-.236-3.915c.265-.06.412-.089.53-.148 5.8-2.03 9.363-7.977 8.51-14.188-.913-6.682-6.773-11.48-13.663-11.215-6.478.265-12.161 5.71-12.338 12.246-.177 6.328-.118 12.657-.03 18.986.06 3.709 3.534 6.593 7.244 6.181 3.71-.382 6.42-3.826 5.83-7.447-.088-.03-.147-.088-.235-.088-.147-.03-.295-.06-.412-.088-4.152-.825-6.89-3.268-8.069-7.33-.706-2.473-.588-5.063-.206-7.565.442-2.944 3.151-5.122 6.184-5.18a6.528 6.528 0 0 1 6.655 6.446c.03 3.09 0 6.181 0 9.39Zm-3.828.47c0-3.414.059-6.8-.03-10.214-.03-1.383-1.413-2.384-2.797-2.296a2.686 2.686 0 0 0-2.532 2.59c-.03 1.384-.06 2.768 0 4.151.147 2.944 2.62 5.623 5.359 5.77Z"/></g><defs><linearGradient id="b" x1="32" x2="32" y1="2.214" y2="58.223" gradientUnits="userSpaceOnUse"><stop stop-color="#fff" stop-opacity=".88"/><stop offset="1" stop-color="#fff" stop-opacity="0"/></linearGradient><linearGradient id="f" x1="40.268" x2="33.281" y1="9.461" y2="54.461" gradientUnits="userSpaceOnUse"><stop/><stop offset="1" stop-color="#2F2F2F"/></linearGradient><filter id="d" width="64" height="64.154" x=".026" y="0" color-interpolation-filters="sRGB" filterUnits="userSpaceOnUse"><feFlood flood-opacity="0" result="BackgroundImageFix"/><feBlend in="SourceGraphic" in2="BackgroundImageFix" result="shape"/><feColorMatrix in="SourceAlpha" result="hardAlpha" values="0 0 0 0 0 0 0 0 0 0 0 0 0 0 0 0 0 0 127 0"/><feOffset dy=".462"/><feGaussianBlur stdDeviation=".077"/><feComposite in2="hardAlpha" k2="-1" k3="1" operator="arithmetic"/><feColorMatrix values="0 0 0 0 1 0 0 0 0 1 0 0 0 0 1 0 0 0 1 0"/><feBlend in2="shape" result="effect1_innerShadow_1376_5457"/></filter><filter id="e" width="37.848" height="48.961" x="14.357" y="7.481" color-interpolation-filters="sRGB" filterUnits="userSpaceOnUse"><feFlood flood-opacity="0" result="BackgroundImageFix"/><feBlend in="SourceGraphic" in2="BackgroundImageFix" result="shape"/><feGaussianBlur result="effect1_foregroundBlur_1376_5457" stdDeviation=".99"/></filter><radialGradient id="c" cx="0" cy="0" r="1" gradientTransform="matrix(0 50.8957 -82.6981 0 32 3.38)" gradientUnits="userSpaceOnUse"><stop stop-color="#fff" stop-opacity=".95"/><stop offset="1" stop-color="#fff" stop-opacity=".88"/></radialGradient></defs></svg>